<?xml version="1.0"?>
<svg version="1.1" xmlns="http://www.w3.org/2000/svg" width="140px" height="120px" style=""><path fill="#" d="M69.96,110.304c0,0.96-0.48,1.536-1.728,1.536l-8.544,0c-2.016,0-2.688-0.768-3.264-2.304l-4.992-14.112l-24.288,0l-4.992,14.4c-0.384,1.248-1.056,2.016-2.592,2.016l-8.544,0c-0.96,0-1.344-0.48-1.344-1.248c0-0.288,0-0.672,0.192-1.056l23.424-62.208c0.48-1.152,1.152-1.92,2.592-1.92l7.68,0c1.44,0,2.304,0.672,2.688,1.728l23.52,61.92c0.192,0.48,0.192,0.864,0.192,1.248z M48.168,86.112l-6.816-20.256c-0.864-2.688-1.44-4.704-1.92-6.24l-0.192,0c-0.48,1.632-1.056,3.648-2.016,6.336l-6.816,20.16l17.76,0z M126.936,66.336c0,14.88-11.232,22.176-25.344,22.176c-0.768,0-5.088-0.192-5.76-0.288l0,21.312c0,1.44-0.576,2.304-2.4,2.304l-7.68,0c-1.536,0-2.304-0.672-2.304-2.592l0-61.248c0-1.92,0.576-2.592,2.4-2.592l13.92,0c10.176,0,17.664,1.92,22.368,7.296c3.072,3.552,4.8,8.448,4.8,13.632z M114.456,66.816c0-8.736-5.376-11.808-13.632-11.808l-4.992,0l0,23.808c0.768,0,5.088,0.096,5.664,0.096c8.16,0,12.96-3.84,12.96-12.096z"/><path fill="#" d=""/></svg>
