<?xml version="1.0"?>
<svg version="1.1" xmlns="http://www.w3.org/2000/svg" width="400px" height="120px" style=""><path fill="#" d="M69.96,110.304c0,0.96-0.48,1.536-1.728,1.536l-8.544,0c-2.016,0-2.688-0.768-3.264-2.304l-4.992-14.112l-24.288,0l-4.992,14.4c-0.384,1.248-1.056,2.016-2.592,2.016l-8.544,0c-0.96,0-1.344-0.48-1.344-1.248c0-0.288,0-0.672,0.192-1.056l23.424-62.208c0.48-1.152,1.152-1.92,2.592-1.92l7.68,0c1.44,0,2.304,0.672,2.688,1.728l23.52,61.92c0.192,0.48,0.192,0.864,0.192,1.248z M48.168,86.112l-6.816-20.256c-0.864-2.688-1.44-4.704-1.92-6.24l-0.192,0c-0.48,1.632-1.056,3.648-2.016,6.336l-6.816,20.16l17.76,0z M126.936,66.336c0,14.88-11.232,22.176-25.344,22.176c-0.768,0-5.088-0.192-5.76-0.288l0,21.312c0,1.44-0.576,2.304-2.4,2.304l-7.68,0c-1.536,0-2.304-0.672-2.304-2.592l0-61.248c0-1.92,0.576-2.592,2.4-2.592l13.92,0c10.176,0,17.664,1.92,22.368,7.296c3.072,3.552,4.8,8.448,4.8,13.632z M114.456,66.816c0-8.736-5.376-11.808-13.632-11.808l-4.992,0l0,23.808c0.768,0,5.088,0.096,5.664,0.096c8.16,0,12.96-3.84,12.96-12.096z M185.064,88.512c0,13.824-8.448,24.48-23.424,24.48c-15.648,0-22.848-10.56-22.848-24.576c0-13.824,8.448-24.384,23.424-24.384c15.648,0,22.848,10.368,22.848,24.48z M173.064,88.512c0-7.872-2.496-15.36-10.944-15.36c-8.544,0-11.328,7.392-11.328,15.072c0,7.872,2.4,15.648,10.944,15.648c8.448,0,11.328-7.488,11.328-15.36z M226.392,65.664c0,0.288,0,0.576-0.096,0.864l-1.056,6.816c-0.096,0.864-0.576,1.248-1.344,1.248l-0.384,0c-0.768-0.192-1.728-0.288-2.592-0.288c-3.264,0-6.816,1.728-9.216,4.608l0,30.528c0,1.536-0.672,2.4-2.304,2.4l-7.008,0c-1.536,0-2.304-0.768-2.304-2.4l0-29.952l0-11.808c0-1.92,0.96-2.4,2.4-2.4l6.144,0c1.536,0,2.4,0.48,2.4,1.824l0.096,3.072c2.976-3.744,6.24-6.144,11.616-6.144c0.768,0,1.824,0.192,2.688,0.384c0.672,0.192,0.96,0.48,0.96,1.248z M282.408,88.512c0,13.824-8.448,24.48-23.424,24.48c-15.648,0-22.848-10.56-22.848-24.576c0-13.824,8.448-24.384,23.424-24.384c15.648,0,22.848,10.368,22.848,24.48z M270.408,88.512c0-7.872-2.496-15.36-10.944-15.36c-8.544,0-11.328,7.392-11.328,15.072c0,7.872,2.4,15.648,10.944,15.648c8.448,0,11.328-7.488,11.328-15.36z M338.808,109.152c0,2.016-0.576,2.688-2.496,2.688l-6.144,0c-1.248,0-2.208-0.672-2.304-1.92l-0.096-2.4c-4.416,3.552-9.696,5.472-15.264,5.472c-10.752,0-15.168-6.816-15.168-17.184l0-28.32c0-1.632,0.96-2.208,2.496-2.208l6.72,0c1.536,0,2.4,0.48,2.4,2.208l0,26.304c0,5.28,1.344,8.928,7.104,8.928c3.648,0,8.256-2.016,11.136-4.608l0-30.624c0-1.632,0.864-2.208,2.4-2.208l6.816,0c1.536,0,2.4,0.48,2.4,2.208l0,41.664z M387.528,98.112c0,10.08-8.736,14.88-18.528,14.88c-4.992,0-10.464-1.44-14.784-3.36c-0.864-0.384-1.152-0.96-1.152-1.536c0-0.288,0.096-0.576,0.192-0.864l1.536-4.896c0.288-0.96,0.768-1.344,1.344-1.344c0.288,0,0.576,0,1.056,0.192c4.224,1.728,8.736,2.976,12.096,2.976c4.224,0,7.104-1.92,7.104-5.088c0-2.688-1.824-4.128-5.76-5.664l-7.584-2.88c-5.472-2.016-9.888-6.24-9.888-12.768c0-9.408,8.832-13.728,17.376-13.728c4.608,0,9.12,0.768,13.92,2.88c0.768,0.384,1.152,0.768,1.152,1.344c0,0.288-0.096,0.576-0.192,0.96l-1.632,5.184c-0.192,0.672-0.672,1.056-1.344,1.056c-0.288,0-0.672-0.096-0.96-0.192c-3.168-1.248-7.296-2.304-10.368-2.304c-4.032,0-6.048,2.208-6.048,4.416c0,2.112,1.056,3.456,4.704,4.896l8.64,3.552c5.088,2.112,9.12,6.048,9.12,12.288z"/><path fill="#" d=""/></svg>
